<?xml version="1.0" standalone="no"?>
<!DOCTYPE svg PUBLIC "-//W3C//DTD SVG 20010904//EN"
 "http://www.w3.org/TR/2001/REC-SVG-20010904/DTD/svg10.dtd">
<svg version="1.0" xmlns="http://www.w3.org/2000/svg"
 width="89.000000pt" height="89.000000pt" viewBox="0 0 89.000000 89.000000"
 preserveAspectRatio="xMidYMid meet">

<g transform="translate(0.000000,89.000000) scale(0.100000,-0.100000)"
fill="#000000" stroke="none">
<path d="M0 445 l0 -445 445 0 445 0 0 445 0 445 -445 0 -445 0 0 -445z m250
170 l0 -45 -60 0 c-57 0 -60 -1 -60 -25 0 -23 3 -25 50 -25 l50 0 0 -45 0 -45
-50 0 -49 0 -3 -72 -3 -73 -37 -3 -38 -3 0 190 0 191 100 0 100 0 0 -45z m210
39 c66 -14 95 -124 46 -181 l-24 -28 39 -76 c21 -42 35 -79 32 -83 -4 -3 -24
-6 -45 -6 -36 0 -39 2 -69 63 -50 100 -53 101 -59 16 l-5 -74 -37 -3 -38 -3 0
190 0 191 64 0 c35 0 78 -3 96 -6z m314 -8 c50 -21 69 -85 42 -137 -12 -24
-12 -29 3 -43 11 -11 16 -34 16 -71 0 -46 -4 -59 -27 -81 -25 -25 -33 -27
-115 -28 l-88 -1 -3 188 -2 187 70 0 c39 0 86 -6 104 -14z"/>
<path d="M380 540 c0 -29 2 -31 33 -28 27 2 32 7 32 28 0 21 -5 26 -32 28 -31
3 -33 1 -33 -28z"/>
<path d="M680 544 c0 -23 3 -25 33 -22 24 2 33 8 35 26 3 19 -1 22 -32 22 -32
0 -36 -3 -36 -26z"/>
<path d="M680 400 c0 -30 2 -31 38 -28 32 3 37 6 37 28 0 22 -5 25 -37 28 -36
3 -38 2 -38 -28z"/>
</g>
</svg>
