

<?xml version="1.0" encoding="UTF-8" standalone="no"?>
<!-- Created with Inkscape (http://www.inkscape.org/) -->

<svg
   width="13.389728mm"
   height="12.301192mm"
   version="1.1"
   viewBox="0 0 13.389727 12.301192"
   id="svg8"
   sodipodi:docname="THETA.svg"
   xmlns:inkscape="http://www.inkscape.org/namespaces/inkscape"
   xmlns:sodipodi="http://sodipodi.sourceforge.net/DTD/sodipodi-0.dtd"
   xmlns="http://www.w3.org/2000/svg"
   xmlns:svg="http://www.w3.org/2000/svg">
  <defs
     id="defs12">
    <clipPath
       clipPathUnits="userSpaceOnUse"
       id="clipPath816">
      <rect
         style="fill:#000000;stroke-width:0.264583"
         id="rect818"
         width="13.389729"
         height="12.301191"
         x="74.468285"
         y="85.865807" />
    </clipPath>
  </defs>
  <sodipodi:namedview
     id="namedview10"
     pagecolor="#ffffff"
     bordercolor="#000000"
     borderopacity="0.25"
     inkscape:showpageshadow="2"
     inkscape:pageopacity="0.0"
     inkscape:pagecheckerboard="0"
     inkscape:deskcolor="#d1d1d1"
     inkscape:document-units="mm"
     showgrid="false"
     inkscape:zoom="5.7106692"
     inkscape:cx="101.1265"
     inkscape:cy="31.87017"
     inkscape:window-width="1920"
     inkscape:window-height="1017"
     inkscape:window-x="-8"
     inkscape:window-y="-8"
     inkscape:window-maximized="1"
     inkscape:current-layer="svg8" />
  <g
     transform="translate(-74.468285,-85.865807)"
     id="g6"
     clip-path="url(#clipPath816)"
     inkscape:export-filename="THETAELOG.svg"
     inkscape:export-xdpi="96"
     inkscape:export-ydpi="96">
    <path
       d="m 63.172,81.279 v 16.594 h 2.1224 v -6.0053 c 0,-1.8965 1.1065,-3.3869 3.161,-3.3869 1.5804,0 2.6417,0.90311 2.6417,3.1383 v 6.2766 h 2.1224 v -6.751 c 0,-2.8222 -1.3548,-4.6054 -4.177,-4.6054 -1.7159,0 -3.0482,0.81256 -3.7481,2.0092 v -7.2698 z m -13.908,0.29352 v 2.0319 h 4.9217 v 14.292 h 2.2128 v -14.292 h 4.8994 v -2.0319 z m 40.888,1.8288 v 3.4541 h -2.1678 v 1.7839 h 2.1678 v 9.2568 h 2.1224 v -9.2568 h 2.1673 v -1.7839 h -2.1673 v -3.4541 z m 10.589,3.1383 c -2.8448,0 -4.7413,1.5123 -4.7413,3.8153 h 1.851 c 0,-1.3321 1.0162,-2.1224 2.7998,-2.1224 1.4901,0 2.5962,0.65493 2.5962,2.5063 v 0.31626 l -3.4768,0.27078 c -2.5964,0.2032 -4.1093,1.4675 -4.1093,3.4995 0,2.0094 1.3996,3.3414 3.7703,3.3414 1.7836,0 3.2968,-0.7903 3.8613,-2.0547 l 0.22583,1.7839 h 1.8061 v -6.9314 c 0,-2.9803 -1.8513,-4.4251 -4.5832,-4.4251 z m -19.553,0.02222 c -3.3189,0 -5.7573,2.3935 -5.7573,5.8027 0,3.4092 2.4383,5.8022 5.7573,5.8022 2.5006,0 4.5077,-1.3773 5.3309,-3.5305 h -2.3167 c -0.62529,1.0175 -1.6982,1.634 -3.0143,1.634 -2.1449,0 -3.6122,-1.6028 -3.6122,-3.9057 0,-2.3029 1.4673,-3.9062 3.6122,-3.9062 2.1223,0 3.6127,1.6033 3.6127,3.9062 0,0.08083 -0.002,0.16072 -0.0057,0.23978 h 2.1239 c 0.0027,-0.07945 0.0041,-0.15918 0.0041,-0.23978 0,-3.4092 -2.4387,-5.8027 -5.735,-5.8027 z m 22.081,5.9831 v 0.58704 c 0,2.0772 -1.2193,3.3869 -3.2287,3.3869 -1.3772,0 -2.235,-0.58709 -2.235,-1.7611 0,-1.0837 0.76774,-1.8063 2.6417,-1.987 z"
       stroke-width="0.26458"
       id="path2"
       inkscape:transform-center-x="1.714262"
       inkscape:transform-center-y="-2.2239074" />
    <rect
       x="78.224998"
       y="91.5"
       width="5.8762999"
       height="1.1037"
       stroke-width="0.25467"
       id="rect4" />
    <path
       style="fill:#ececec;stroke-width:1.83626"
       d="M 74.468284,98.167 87.858013,85.865809"
       id="path510" />
  </g>
</svg>
