<?xml version="1.0" encoding="UTF-8" standalone="no"?>


<svg
   width="14.005001mm"
   height="7.9375mm"
   version="1.1"
   viewBox="0 0 14.005 13.229166"
   id="svg8"
   
   
   
   
   xmlns="http://www.w3.org/2000/svg"
   >
  
  <defs
     id="defs12" />
  <path
     id="path2574"
     style="fill:#000000;fill-opacity:1;stroke-width:0.264583"
     d="M 6.6145829,0 A 6.6145835,6.6145835 0 0 0 0,6.6145834 a 6.6145835,6.6145835 0 0 0 6.6145829,6.6145826 6.6145835,6.6145835 0 0 0 1.023193,-0.08113 v 0.0098 A 6.6145841,6.5513436 0 0 0 14.005346,6.6155999 6.6145841,6.5513436 0 0 0 7.6377759,0.0733636 v 0.00775 A 6.6145835,6.6145835 0 0 0 6.6145829,0 Z m 0,0.2645834 a 6.3499999,6.3499999 0 0 1 6.3500001,6.35 6.3499999,6.3499999 0 0 1 -6.35,6.3499996 6.3499999,6.3499999 0 0 1 -6.35,-6.3499996 6.3499999,6.3499999 0 0 1 6.3499999,-6.35 z M 9.6464385,0.74052332 A 6.3500005,6.2892896 0 0 1 13.740763,6.6156169 6.3500005,6.2892896 0 0 1 9.6319695,12.496395 6.6145835,6.6145835 0 0 0 13.229166,6.6145834 6.6145835,6.6145835 0 0 0 9.6464385,0.74052332 Z" />
  <path
     id="path2574-5"
     style="fill:#000000;fill-opacity:1;stroke-width:0.239999"
     d="M 6.6145829,0.61458322 A 6.0000007,6.0000003 0 0 0 0.614583,6.6145832 6.0000007,6.0000003 0 0 0 6.6145829,12.614583 6.0000007,6.0000003 0 0 0 12.614583,6.6145832 6.0000007,6.0000003 0 0 0 6.6145829,0.61458322 Z m 0,0.24 A 5.7600005,5.7600002 0 0 1 12.374584,6.6145832 5.7600005,5.7600002 0 0 1 6.614583,12.374583 5.7600005,5.7600002 0 0 1 0.854582,6.6145832 5.7600005,5.7600002 0 0 1 6.6145829,0.85458322 Z" />
  <path
     id="path2630"
     style="fill:#000000;fill-opacity:1;stroke-width:0.293266"
     d="m 7.6553459,0.73173832 a 5.3211213,5.8208331 0 0 0 -5.3211218,5.82083328 5.3211213,5.8208331 0 0 0 0.0078,0.2645834 h 0.296106 A 5.0255037,5.4974538 0 0 1 2.62983,6.5525716 5.0255037,5.4974538 0 0 1 7.6553629,1.054716 Z M 2.638082,6.817155 a 5.0255037,5.4974538 0 0 0 0.208772,1.3229163 h 9.570992 V 6.817155 Z M 2.846854,8.1400713 H 2.537829 A 5.3211213,5.8208331 0 0 0 7.6553461,12.373405 V 12.04991 A 5.0255037,5.4974538 0 0 1 2.846854,8.1400713 Z m -0.309025,0 A 5.3211213,5.8208331 0 0 1 2.341976,6.817155 H 1.040763 v 1.3229163 z" />
  <path
     style="fill:#000000;fill-opacity:1;stroke-width:0.264583"
     d="M 2.628263,5.4942382 V 4.1713215"
     id="path2697" />
  <path
     style="fill:#000000;fill-opacity:1;stroke-width:0.264583"
     d="M 3.9511791,4.1713215 V 2.8484049"
     id="path2699" />
  <path
     style="fill:#000000;fill-opacity:1;stroke-width:0.264583"
     d="M 2.628263,2.8484049 V 4.1713215"
     id="path2701" />
  <path
     style="fill:#000000;fill-opacity:1;stroke-width:0.229789"
     d="M 0.77618,6.8171549 2.4392741,6.023405 h 9.9785719 l -1.663095,0.7937499"
     id="path2707" />
  <path
     id="path2574-5-8"
     style="fill:#000000;fill-opacity:1;stroke-width:0.232057"
     d="M 6.6163679,0.77068392 A 5.8014797,5.801361 0 0 0 0.814888,6.5720446 5.8014797,5.801361 0 0 0 6.6163679,12.373405 5.8014797,5.801361 0 0 0 12.417846,6.5720446 5.8014797,5.801361 0 0 0 6.6163679,0.77068392 Z m 0,0.23205438 A 5.5694204,5.5693066 0 0 1 12.185788,6.5720446 5.5694204,5.5693066 0 0 1 6.6163679,12.14135 5.5694204,5.5693066 0 0 1 1.046946,6.5720446 5.5694204,5.5693066 0 0 1 6.6163679,1.0027383 Z" />
  <path
     style="fill:#000000;fill-opacity:1;stroke-width:0.264583"
     d="M 1.569929,6.8171549 V 5.7588215"
     id="path2784" />
  <path
     style="fill:#000000;fill-opacity:1;stroke-width:0.264583"
     d="M 1.569929,8.1400713 H 1.305346"
     id="path2794" />
  <path
     style="fill:#000000;fill-opacity:1;stroke-width:0.264583"
     d="M 1.040763,8.1400713 V 6.8171549"
     id="path2796" />
  <path
     style="fill:#000000;fill-opacity:1;stroke-width:0.264583"
     d="M 2.628263,5.7588215 6.5970129,0.99632162"
     id="path2824" />
  <path
     id="rect3052"
     style="fill:#e6e6e6;fill-opacity:1;stroke-width:0.27459"
     d="m 0.511596,7.0817383 v 0.79375 H 12.68243 v -0.79375 z" />
  <path
     style="fill:#000000;fill-opacity:1;stroke-width:0.264583"
     d="M 0.908472,8.1400713 H 11.756388 V 7.8754883 H 0.908472 Z"
     id="path3699-3" />
  <rect
     style="fill:#000000;fill-opacity:1;stroke-width:0.264583"
     id="rect3162"
     width="1.8520833"
     height="0.79374999"
     x="10.565763"
     y="6.0234046" />
  <path
     style="fill:#000000;fill-opacity:1;stroke-width:0.264583"
     d="M 1.040763,7.0817382 H 11.888679 V 6.8171549 H 1.040763 Z"
     id="path3699" />
  <path
     style="fill:#000000;fill-opacity:1;stroke-width:0.0231657"
     d="m 9.7783066,0.55452512 c -0.231524,0.036538 -0.2956161,0.3686149 -0.09931,0.49322118 0.4076014,0.266225 0.8248864,0.5239977 1.1815474,0.8594262 1.391515,1.2468992 2.189181,3.1319686 2.085242,5.0008231 -0.07274,2.0172167 -1.197348,3.9548014 -2.900182,5.0347444 -0.1655005,0.12497 -0.3846175,0.191326 -0.5132214,0.355676 -0.1402521,0.205217 0.102294,0.47745 0.3259249,0.395211 0.9011025,-0.366031 1.7319815,-0.915384 2.3898205,-1.635537 0.976066,-1.029303 1.58827,-2.3915847 1.728017,-3.8013019 0.02365,-0.6873134 0.04942,-1.3870702 -0.126383,-2.0587094 C 13.544421,3.8131249 12.765297,2.5476522 11.685784,1.6310509 11.161361,1.1933356 10.567739,0.83722822 9.9398796,0.56986332 9.8878865,0.55197742 9.8327816,0.54556662 9.7783066,0.55452512 Z"
     id="path9147" />
  <path
     style="fill:#000000;fill-opacity:1;stroke-width:0.0231657"
     d="m 1.774965,7.8676933 c -0.207289,0.01828 -0.435991,-0.03096 -0.628255,0.05829 -0.192251,0.104669 -0.137303,0.348433 -0.06305,0.511209 0.341418,0.9492503 0.892531,1.8314467 1.657845,2.4960667 0.9196521,0.811319 2.097939,1.34691 3.324097,1.445413 0.247282,0.0094 0.367422,-0.355913 0.152006,-0.486071 C 5.936372,11.750164 5.6264859,11.658898 5.3559,11.490465 4.185253,10.824499 3.311582,9.6991436 2.9056741,8.4231193 c -0.08126,-0.19127 -0.07784,-0.506116 -0.335766,-0.551016 -0.264146,-0.01092 -0.530163,-0.0023 -0.7949381,-0.0044 z"
     id="path9149" />
  <path
     style="fill:#000000;fill-opacity:1;stroke-width:0.0231657"
     d="M 5.8684609,0.78500582 C 3.959339,1.0144003 2.21612,2.2700191 1.379384,3.9994731 0.974405,4.840624 0.744656,5.779726 0.784246,6.7151035 0.797776,6.9367973 1.073991,7.01541 1.238696,6.8935848 1.66005,6.690252 2.0931831,6.503323 2.502113,6.2792794 2.676301,6.1389299 2.619175,5.881398 2.6698271,5.6835767 2.902441,3.9899846 3.917336,2.3849158 5.437616,1.5686143 5.641396,1.4443958 5.880436,1.3838586 6.074736,1.2460573 6.248943,1.0716069 6.114856,0.77113762 5.8684609,0.78500582 Z"
     id="path9151" />
  <path
     style="fill:#ffffff;fill-opacity:1;stroke-width:0.0231657"
     d="M 6.4869219,0.1845977 C 5.5379439,0.1746277 4.600646,0.43908182 3.750791,0.84952572 2.07293,1.6723463 0.79514,3.2629662 0.362564,5.0821608 0.163742,5.8049704 0.157797,6.5620404 0.208203,7.3047483 c 0.159275,1.468212 0.844401,2.8667687 1.894917,3.9031207 1.093377,1.090553 2.5995279,1.735582 4.134496,1.840412 0.6365129,0.0021 1.281353,-0.0064 1.899028,-0.179099 0.7241436,-0.173964 1.4197885,-0.469935 2.028558,-0.901612 1.675305,-1.096814 2.782075,-3.0175067 2.87024,-5.0204023 C 13.146164,5.1221166 12.404672,3.2791198 11.096699,2.0077358 10.636428,1.5453876 10.081848,1.1886676 9.5188246,0.86536162 8.7809416,0.50160692 7.9745869,0.2610771 7.153119,0.1975379 6.931293,0.1854753 6.7090369,0.182771 6.4869219,0.1845977 Z M 6.590491,0.71080312 c 1.5821181,-0.015915 3.1609786,0.64501708 4.260479,1.78885028 1.213866,1.2402029 1.83166,3.0207719 1.633408,4.745823 -0.175659,1.7740279 -1.21204,3.4276006 -2.7243645,4.3674446 -1.6229965,1.031793 -3.7181466,1.191228 -5.4741286,0.428996 -1.331842,-0.562246 -2.446492,-1.648612 -3.041425,-2.9737957 -0.6843549,-1.4795 -0.7118029,-3.2144308 -0.08433,-4.721 0.678851,-1.665297 2.164633,-2.9670824 3.89874,-3.42920658 0.49843,-0.1361342 1.019313,-0.2057813 1.531626,-0.2071116 z"
     id="path9236" />
</svg>
